<svg height="512" viewBox="0 0 497 497" width="512" xmlns="http://www.w3.org/2000/svg"><circle cx="248.5" cy="248.5" fill="#a381e6" r="248.5"/><circle cx="248.5" cy="248.5" fill="#b0d0ff" r="203.5"/><path d="M248.5 75v347c95.821 0 173.5-77.679 173.5-173.5S344.321 75 248.5 75z" fill="#e3f5ff"/><path d="M392 248.5C392 152.679 327.753 75 248.5 75 152.679 75 75 152.679 75 248.5S152.679 422 248.5 422c79.253 0 143.5-77.679 143.5-173.5z" fill="#fff"/><path d="M248.5 105c-8.284 0-15 6.716-15 15v126.734h30V120c0-8.284-6.716-15-15-15z" fill="#68799e"/><path d="M347 233.5h-30v30h30c8.28 0 15-6.72 15-15s-6.72-15-15-15z" fill="#506480"/><path d="M332 248.5c0-8.284-6.716-15-15-15h-66.734v30H317c8.284 0 15-6.716 15-15z" fill="#68799e"/><path d="M147.078 357.422a7.474 7.474 0 01-5.303-2.197 7.5 7.5 0 010-10.606l101.422-101.422a7.501 7.501 0 0110.607 0 7.5 7.5 0 010 10.606L152.381 355.226a7.477 7.477 0 01-5.303 2.196z" fill="#506480"/><circle cx="248.5" cy="248.5" fill="#b0d0ff" r="22.5"/></svg>