<svg height="512" width="512" xmlns="http://www.w3.org/2000/svg"><path d="M512 439.23H322.369v27.162c0 5.69 4.612 10.302 10.302 10.302h169.027c5.69 0 10.302-4.612 10.302-10.302z" fill="#ecf4ff"/><path d="M512 120.647V439.23H322.364l.01-94.653c0-2.73-1.092-5.357-3.018-7.283l-55.99-55.99A25.047 25.047 0 01256 263.533c0-6.439 2.452-12.877 7.366-17.781 9.818-9.818 25.734-9.818 35.551 0l23.457 23.447V98.127c0-6.717 2.72-12.785 7.119-17.183 4.399-4.399 10.467-7.119 17.183-7.119 2.679 0 5.254.453 7.644 1.298 8.993 3.152 15.453 11.723 15.453 21.799V59.011c0-6.542 2.658-12.465 6.943-16.761 4.296-4.286 10.22-6.943 16.761-6.943 2.905 0 5.687.525 8.252 1.483 9.024 3.348 15.453 12.043 15.453 22.221v26.074c0-6.542 2.658-12.465 6.943-16.761a23.645 23.645 0 0116.761-6.943c2.905 0 5.687.525 8.252 1.483 9.024 3.348 15.453 12.043 15.453 22.221v35.562a23.631 23.631 0 016.943-16.761 23.603 23.603 0 0116.761-6.943c13.094 0 23.705 10.61 23.705 23.704z" fill="#c8ea73"/><path d="M488.296 96.94c-3.715 0-7.224.868-10.352 2.394 7.885 3.85 13.317 11.945 13.317 21.31V439.23H512V120.644c0-13.091-10.613-23.704-23.704-23.704z" fill="#aad880"/><path d="M491.261 476.693h10.437c5.69 0 10.302-4.612 10.302-10.302V439.23h-20.739z" fill="#ddeafb"/><path d="M0 439.23h189.631v27.162c0 5.69-4.612 10.302-10.302 10.302H10.302C4.612 476.693 0 472.081 0 466.391z" fill="#ecf4ff"/><path d="M142.222 59.015v37.911c0-12.76 10.344-23.104 23.104-23.104 13.423 0 24.304 10.881 24.304 24.304v171.073l23.451-23.451c9.818-9.818 25.737-9.818 35.556 0 9.818 9.818 9.818 25.737 0 35.555l-55.989 55.989a10.301 10.301 0 00-3.017 7.285l.001 94.652H0V120.643c0-13.09 10.613-23.703 23.704-23.703 13.091 0 23.704 10.613 23.704 23.704V85.089c0-13.091 10.613-23.704 23.704-23.704 13.091 0 23.704 10.613 23.704 23.704V59.015c0-13.091 10.613-23.704 23.704-23.704 13.09 0 23.702 10.612 23.702 23.704z" fill="#c8ea73"/><path d="M169.225 98.126v160.667c0 5.747 4.659 10.406 10.407 10.406h9.998V98.749c0-12.025-8.498-22.636-20.361-24.6-5.06-.838-9.879-.026-14.012 1.978 8.253 3.885 13.968 12.273 13.968 21.999zm79.411 147.622c-7.568-7.568-18.751-9.277-27.98-5.179a25.034 25.034 0 017.576 5.179c9.818 9.818 9.818 25.737 0 35.555l-52.911 52.911a20.813 20.813 0 00-6.096 14.717l.001 90.298h20.404l-.001-94.652c0-2.732 1.085-5.353 3.017-7.285l55.989-55.989c9.82-9.818 9.82-25.736.001-35.555z" fill="#aad880"/><path d="M189.631 439.23h-20.404l-.001 37.463h10.103c5.69 0 10.302-4.612 10.302-10.302z" fill="#ddeafb"/><path d="M464.591 85.085v94.086c0 4.275-3.461 7.726-7.726 7.726s-7.726-3.451-7.726-7.726V62.864c9.024 3.348 15.452 12.043 15.452 22.221zm-47.409-26.074v120.16a7.716 7.716 0 01-7.726 7.726 7.722 7.722 0 01-7.726-7.726V36.79c9.024 3.348 15.452 12.043 15.452 22.221zm-47.409 37.911v82.25a7.716 7.716 0 01-7.726 7.726 7.722 7.722 0 01-7.726-7.726V75.123c8.993 3.153 15.452 11.724 15.452 21.799zM47.409 120.647v58.525a7.723 7.723 0 01-7.726 7.726 7.722 7.722 0 01-7.726-7.726V98.416a23.695 23.695 0 018.509 5.47 23.63 23.63 0 016.943 16.761zm47.409-35.562v94.086a7.723 7.723 0 01-7.726 7.726 7.716 7.716 0 01-7.726-7.726V62.864a23.671 23.671 0 018.509 5.46c4.285 4.296 6.943 10.219 6.943 16.761zm47.409-26.074v120.16a7.723 7.723 0 01-7.726 7.726 7.716 7.716 0 01-7.726-7.726V36.79a23.671 23.671 0 018.509 5.46c4.285 4.296 6.943 10.22 6.943 16.761z" fill="#aad880"/></svg>