<svg height="512" width="512" xmlns="http://www.w3.org/2000/svg"><path d="M431.514 0H110.71C96.473 0 84.932 11.541 84.932 25.778v9.568l20.038 212.396-20.038 210.899v27.581c0 14.237 11.541 25.778 25.778 25.778h320.804c14.237 0 25.778-11.541 25.778-25.778V25.778C457.292 11.541 445.751 0 431.514 0zM134.522 424.331c-16.321 0-29.552-13.231-29.552-29.552s13.231-29.552 29.552-29.552 29.552 13.231 29.552 29.552-13.23 29.552-29.552 29.552zm0-94.549c-16.321 0-29.552-13.231-29.552-29.552s13.231-29.552 29.552-29.552 29.552 13.231 29.552 29.552c.001 16.321-13.23 29.552-29.552 29.552zm0-94.55c-16.321 0-29.552-13.231-29.552-29.552s13.231-29.553 29.552-29.553 29.552 13.231 29.552 29.553c.001 16.321-13.23 29.552-29.552 29.552zm0-94.549c-16.321 0-29.552-13.231-29.552-29.552s13.231-29.552 29.552-29.552 29.552 13.231 29.552 29.552c.001 16.321-13.23 29.552-29.552 29.552z" fill="#b3e59f"/><path d="M431.514 0h-9.686v450.758c0 14.237-11.541 25.778-25.778 25.778H84.932v9.686c0 14.237 11.541 25.778 25.778 25.778h320.804c14.237 0 25.778-11.541 25.778-25.778V25.778C457.292 11.541 445.751 0 431.514 0z" fill="#95d6a4"/><path d="M405.89 33.145l-15.866 12.534a4.591 4.591 0 01-5.694 0l-17.561-13.872a4.591 4.591 0 00-5.694 0l-17.558 13.872a4.591 4.591 0 01-5.694 0l-17.558-13.872a4.591 4.591 0 00-5.694 0l-17.557 13.871a4.591 4.591 0 01-5.694 0l-17.556-13.871a4.593 4.593 0 00-5.695 0l-17.553 13.871a4.593 4.593 0 01-5.695 0l-17.553-13.87a4.593 4.593 0 00-5.695 0l-17.55 13.87a4.593 4.593 0 01-5.695 0l-17.555-13.871a4.593 4.593 0 00-5.695 0l-17.554 13.871a4.593 4.593 0 01-5.695 0l-17.554-13.87a4.593 4.593 0 00-5.695 0l-17.553 13.87a4.593 4.593 0 01-5.695 0L89.474 33.146c-1.838-1.453-4.542-.143-4.542 2.2v423.295c0 3.43 1.57 6.672 4.262 8.799l16.139 12.753a4.593 4.593 0 005.695 0l17.553-13.87a4.593 4.593 0 015.695 0l17.554 13.871a4.593 4.593 0 005.695 0l17.554-13.871a4.593 4.593 0 015.695 0l17.555 13.871a4.593 4.593 0 005.695 0l17.55-13.87a4.593 4.593 0 015.695 0l17.553 13.87a4.593 4.593 0 005.695 0l17.553-13.87a4.593 4.593 0 015.695 0l17.556 13.871a4.591 4.591 0 005.694 0l17.557-13.871a4.591 4.591 0 015.694 0l17.558 13.872a4.591 4.591 0 005.694 0l17.558-13.872a4.591 4.591 0 015.694 0l17.561 13.872a4.594 4.594 0 005.694 0l16.145-12.754a11.216 11.216 0 004.263-8.8V35.345c-.002-2.343-2.705-3.652-4.543-2.2zM134.522 419.054c-13.407 0-24.275-10.868-24.275-24.275s10.868-24.275 24.275-24.275 24.275 10.868 24.275 24.275c.001 13.407-10.868 24.275-24.275 24.275zm0-94.549c-13.407 0-24.275-10.868-24.275-24.275s10.868-24.275 24.275-24.275 24.275 10.868 24.275 24.275c.001 13.406-10.868 24.275-24.275 24.275zm0-94.55c-13.407 0-24.275-10.868-24.275-24.275s10.868-24.275 24.275-24.275 24.275 10.868 24.275 24.275c.001 13.407-10.868 24.275-24.275 24.275zm0-94.55c-13.407 0-24.275-10.868-24.275-24.275s10.868-24.275 24.275-24.275 24.275 10.868 24.275 24.275-10.868 24.275-24.275 24.275z" fill="#f4fbff"/><path d="M405.89 33.145l-15.866 12.534a4.591 4.591 0 01-5.694 0l-5.334-4.213v385.739c0 3.431-1.571 6.673-4.263 8.8l-16.145 12.754a4.594 4.594 0 01-5.694 0l-17.561-13.872a4.593 4.593 0 00-5.694 0l-17.558 13.872a4.591 4.591 0 01-5.694 0l-17.558-13.872a4.591 4.591 0 00-5.694 0l-17.557 13.871a4.591 4.591 0 01-5.694 0l-17.556-13.871a4.593 4.593 0 00-5.695 0l-17.553 13.87a4.593 4.593 0 01-5.695 0l-17.553-13.87a4.593 4.593 0 00-5.695 0l-17.55 13.87a4.593 4.593 0 01-5.695 0l-17.555-13.871a4.593 4.593 0 00-5.695 0l-17.554 13.871a4.593 4.593 0 01-5.695 0l-17.553-13.871a4.593 4.593 0 00-5.695 0l-12.214 9.651v14.102c0 3.43 1.57 6.672 4.262 8.799l16.139 12.753a4.593 4.593 0 005.695 0l17.553-13.87a4.593 4.593 0 015.695 0l17.554 13.871a4.593 4.593 0 005.695 0l17.554-13.871a4.593 4.593 0 015.695 0l17.555 13.871a4.593 4.593 0 005.695 0l17.55-13.87a4.593 4.593 0 015.695 0l17.553 13.87a4.593 4.593 0 005.695 0l17.553-13.87a4.593 4.593 0 015.695 0l17.556 13.871a4.591 4.591 0 005.694 0l17.557-13.871a4.591 4.591 0 015.694 0l17.558 13.872a4.591 4.591 0 005.694 0l17.558-13.872a4.591 4.591 0 015.694 0l17.561 13.872a4.594 4.594 0 005.694 0l16.145-12.754a11.216 11.216 0 004.263-8.8V35.345c-.001-2.343-2.704-3.652-4.542-2.2z" fill="#e4f6ff"/><path d="M112.063 126.025H70.174c-8.542 0-15.467-6.925-15.467-15.467s6.925-15.467 15.467-15.467h41.889c8.542 0 15.467 6.925 15.467 15.467s-6.925 15.467-15.467 15.467zm0 95.122H70.174c-8.542 0-15.467-6.925-15.467-15.467s6.925-15.467 15.467-15.467h41.889c8.542 0 15.467 6.925 15.467 15.467s-6.925 15.467-15.467 15.467zm0 95.121H70.174c-8.542 0-15.467-6.925-15.467-15.467s6.925-15.467 15.467-15.467h41.889c8.542 0 15.467 6.925 15.467 15.467s-6.925 15.467-15.467 15.467zm0 95.121H70.174c-8.542 0-15.467-6.925-15.467-15.467s6.925-15.467 15.467-15.467h41.889c8.542 0 15.467 6.925 15.467 15.467s-6.925 15.467-15.467 15.467z" fill="#365e7d"/><path d="M113.621 95.171c.005.169.026.334.026.504 0 8.542-6.925 15.467-15.467 15.467H56.29a15.4 15.4 0 01-1.557-.079c.268 8.306 7.069 14.963 15.441 14.963h41.889c8.542 0 15.467-6.925 15.467-15.467 0-8.016-6.099-14.607-13.909-15.388zm0 95.121c.005.169.026.334.026.504 0 8.542-6.925 15.467-15.467 15.467H56.29a15.4 15.4 0 01-1.557-.079c.268 8.306 7.069 14.963 15.441 14.963h41.889c8.542 0 15.467-6.925 15.467-15.467 0-8.016-6.099-14.607-13.909-15.388zm0 95.121c.005.169.026.334.026.504 0 8.542-6.925 15.467-15.467 15.467H56.29a15.4 15.4 0 01-1.557-.079c.268 8.306 7.069 14.963 15.441 14.963h41.889c8.542 0 15.467-6.925 15.467-15.467 0-8.016-6.099-14.607-13.909-15.388zm0 95.121c.005.169.026.334.026.504 0 8.542-6.925 15.467-15.467 15.467H56.29a15.4 15.4 0 01-1.557-.079c.268 8.306 7.069 14.963 15.441 14.963h41.889c8.542 0 15.467-6.925 15.467-15.467 0-8.016-6.099-14.607-13.909-15.388z" fill="#2b4d66"/><path d="M361.326 260.887H254.9a7.733 7.733 0 110-15.466h106.426a7.733 7.733 0 110 15.466zm0 136.369H254.9a7.733 7.733 0 110-15.466h106.426a7.733 7.733 0 110 15.466z" fill="#d3effb"/><path d="M211.335 168.991h-.044c-5.384.03-11.164.051-15.572.055v-58.948a7.733 7.733 0 10-15.466 0v66.625a7.734 7.734 0 006.431 7.623c.55.095 17.111.153 24.694.111a7.734 7.734 0 00-.043-15.466zm31.436-66.625a7.733 7.733 0 00-7.733 7.733v66.681a7.733 7.733 0 1015.466 0v-66.681a7.733 7.733 0 00-7.733-7.733zm63.633 35.515c-8.291-3.059-16.003-6.392-18.262-7.382-2.121-1.65-2.053-3.979-1.914-4.944.186-1.291 1.115-4.445 5.726-5.833 9.72-2.931 18.668 4.162 18.906 4.353a7.732 7.732 0 0010.859-.974 7.733 7.733 0 00-.944-10.896c-.619-.52-15.374-12.686-33.282-7.293-8.979 2.706-15.33 9.773-16.574 18.445-1.166 8.123 2.354 15.937 9.187 20.392.341.223.7.418 1.072.584.385.171 9.55 4.251 19.873 8.059 3.066 1.131 10.092 4.345 9.127 9.748-.709 3.97-5.481 8.078-12.24 8.078-6.795 0-13.34-2.745-17.507-7.344a7.734 7.734 0 00-11.461 10.385c7.05 7.78 17.879 12.425 28.968 12.425 13.761 0 25.312-8.758 27.466-20.826 1.617-9.058-2.526-20.901-19-26.977zm73.335-34.345h-36.826a7.733 7.733 0 100 15.466h10.605v58.948a7.733 7.733 0 1015.466 0v-58.948h10.754c4.271 0 7.733-3.462 7.733-7.733s-3.461-7.733-7.732-7.733z" fill="#80b4fb"/><path d="M387.472 111.269a7.733 7.733 0 00-7.733-7.733h-.743v15.467h.743a7.734 7.734 0 007.733-7.734z" fill="#61a2f9"/><path d="M202.069 273.495a7.713 7.713 0 01-5.469-2.265l-12.608-12.608a7.734 7.734 0 0110.937-10.937l7.139 7.14 19.505-19.506a7.734 7.734 0 0110.937 10.937l-24.973 24.973a7.704 7.704 0 01-5.468 2.266z" fill="#95d6a4"/><path d="M361.326 328.95H254.9a7.733 7.733 0 110-15.466h106.426a7.733 7.733 0 110 15.466z" fill="#d3effb"/><path d="M202.069 341.558a7.713 7.713 0 01-5.469-2.265l-12.608-12.608a7.734 7.734 0 0110.937-10.937l7.139 7.14 19.505-19.506a7.734 7.734 0 0110.937 10.937l-24.973 24.973a7.704 7.704 0 01-5.468 2.266zm0 68.064a7.713 7.713 0 01-5.469-2.265l-12.608-12.608a7.734 7.734 0 0110.937-10.937l7.139 7.14 19.505-19.505a7.734 7.734 0 0110.937 10.937l-24.973 24.973a7.711 7.711 0 01-5.468 2.265z" fill="#95d6a4"/></svg>