<svg height="512" viewBox="0 0 24 24" width="512" xmlns="http://www.w3.org/2000/svg"><path d="M16.588 5H14.75a.75.75 0 01-.75-.75v-.838A3.416 3.416 0 0117.412 0h1.838a.75.75 0 01.75.75v.838A3.416 3.416 0 0116.588 5z" fill="#8bc34a"/><path d="M19.25 0h-1.838A3.416 3.416 0 0014 3.412v.838c0 .168.055.322.148.447C15.47 2.832 17.994.862 19.864.319A.75.75 0 0019.25 0z" fill="#79aa40"/><path d="M14.75 12.25a.75.75 0 01-.75-.75v-7a.75.75 0 011.5 0v7a.75.75 0 01-.75.75z" fill="#388e3c"/><path d="M14.75 9H14v2.5c0 .414.336.75.75.75zm0-5.25a.752.752 0 00-.668.408c.251.231.476.492.668.775z" fill="#317c34"/><path d="M24 19c0 .44-1.55 1.46-3.55 2.47C17.92 22.75 14.68 24 13 24c-.25 0-.55-.02-.88-.07h-.01c-2.31-.3-6.16-1.56-8.15-2.46l2.01-7.08c.04-.149.061-.29.07-.43 1.13.09 2.08.25 2.91.49.96.26 1.78.609 2.57 1.05 1.51.23 4.48.5 4.48 2.25 0 .72-.44 1.25-2 1.25s-4.25-.5-4.25-.5S12 20.03 14 20.03c1.87 0 5.47-2.2 7.57-2.49.15-.03.3-.04.43-.04 1 0 2 .5 2 1.5z" fill="#ffcc80"/><path d="M3.5 22H.75a.75.75 0 01-.75-.75v-8.5A.75.75 0 01.75 12c3.505 0 5.138 1.217 5.205 1.268a.751.751 0 01.269.793l-2 7.385A.75.75 0 013.5 22z" fill="#607d8b"/><path d="M22 17.5c-.13 0-.28.01-.43.04-2.1.29-5.7 2.49-7.57 2.49-2 0-4.25-1.53-4.25-1.53l-4.539-.698-.987 3.644a.742.742 0 01-.045.122c2.043.891 5.703 2.073 7.93 2.362h.01c.331.05.631.07.881.07 1.68 0 4.92-1.25 7.45-2.53 2-1.01 3.55-2.03 3.55-2.47 0-1-1-1.5-2-1.5z" fill="#deb26f"/><path d="M0 17v4.25c0 .414.336.75.75.75H3.5a.75.75 0 00.725-.555l.987-3.644z" fill="#546d79"/><path d="M14.75 9h-1.867A4.388 4.388 0 018.5 4.617V3.75A.75.75 0 019.25 3h1.867A4.388 4.388 0 0115.5 7.383v.867a.75.75 0 01-.75.75z" fill="#8bc34a"/><path d="M8.632 3.325a.748.748 0 00-.132.425v.867A4.388 4.388 0 0012.883 9h1.867a.746.746 0 00.489-.181c-1.2-2.165-4.048-4.558-6.607-5.494z" fill="#79aa40"/></svg>