<svg height="512" width="512" xmlns="http://www.w3.org/2000/svg"><path d="M256 0h-15v45h30V0z" fill="#2d5177"/><path d="M256 0h15v45h-15z" fill="#32405d"/><path d="M301 437v30c0 8.276-6.724 15-15 15s-15-6.724-15-15V255h-30v212c0 13.248 5.861 25.052 15 33.296 7.98 7.196 18.433 11.704 30 11.704 24.814 0 45-20.186 45-45v-30z" fill="#2d5177"/><path d="M331 467v-30h-30v30c0 8.276-6.724 15-15 15s-15-6.724-15-15V255h-15v245.296c7.98 7.196 18.433 11.704 30 11.704 24.814 0 45-20.186 45-45z" fill="#32405d"/><path d="M0 270l.015 24.17 21.68-10.737C21.958 283.286 50.043 270 76 270c19.351 0 42.231 18.501 49.409 25.62l10.783 10.298L256 30C110.629 30 0 133.184 0 270z" fill="#f03800"/><path d="M256 30l119.808 275.918 10.783-10.298C393.769 288.501 416.649 270 436 270c25.957 0 54.042 13.286 54.306 13.433L512 294.185V270c0-136.816-110.629-240-256-240z" fill="#cd0000"/><path d="M256 30c-64.984 0-117.77 122.758-119.808 275.918l10.399-10.298C153.769 288.501 176.649 270 196 270s42.231 18.501 49.409 25.62L256 306.094l.015.015 10.576-10.488C273.769 288.501 296.649 270 316 270s42.231 18.501 49.409 25.62l10.399 10.298C373.77 152.758 320.984 30 256 30z" fill="#ff641a"/><path d="M266.591 295.62C273.769 288.501 296.649 270 316 270s42.231 18.501 49.409 25.62l10.399 10.298C373.77 152.758 320.984 30 256 30v276.094l.015.015z" fill="#f03800"/></svg>