<svg height="512" width="512" xmlns="http://www.w3.org/2000/svg"><path d="M24 88h464v336H24z" fill="#548aff"/><path d="M72 136h368v240H72z" fill="#4976f2"/><path d="M312 224h48v16h-48zm-96 0h80v16h-80zm-64 0h48v16h-48z" fill="#639aff"/><path d="M260 378l-52 78-8-40-40 8 48-72z" fill="#e35430"/><path d="M252 378l52 78 8-40 40 8-48-72z" fill="#ef5e3b"/><path d="M302.06 169.454L336 184v-40l-19.378-9.69A135.554 135.554 0 00256 120a135.554 135.554 0 00-60.622 14.31L176 144v40l33.94-14.546A116.926 116.926 0 01256 160a116.926 116.926 0 0146.06 9.454zM232 192h48v16h-48zm-96 136h72v16h-72zm168 0h72v16h-72zm88 0h16v16h-16zm-288 0h16v16h-16z" fill="#639aff"/><circle cx="256" cy="328" fill="#ffc431" r="56"/><path d="M260 336h-8a8 8 0 010-16h8a8 8 0 010 16z" fill="#ffa100"/></svg>