<svg height="512" viewBox="0 0 64 64" width="512" xmlns="http://www.w3.org/2000/svg"><circle cx="14" cy="10" fill="#c7e2fc" r="8"/><circle cx="32" cy="32" fill="#c7e2fc" r="17"/><path d="M48 26c5.523 0 10-4.477 10-10S53.523 6 48 6s-10 4.477-10 10v.089A17.052 17.052 0 0147.911 26zm-2 5.999h-2c0-6.617-5.383-12-12-12v-2c7.719.001 14 6.281 14 14z" fill="#ebf7fe"/><circle cx="54" cy="54" fill="#ebf7fe" r="8"/><path d="M58.999 53.999h-2c0-1.654-1.346-3-3-3v-2c2.757.001 5 2.243 5 5z" fill="#c7e2fc"/><path d="M19 9.999h-2c0-1.654-1.346-3-3-3V5c2.757 0 5 2.242 5 4.999z" fill="#ebf7fe"/><path d="M54.999 15.999h-2c0-2.757-2.243-5-5-5V9c3.86 0 7 3.14 7 6.999z" fill="#c7e2fc"/><circle cx="15" cy="58" fill="#c7e2fc" r="4"/><circle cx="6" cy="40" fill="#c7e2fc" r="4"/><g fill="#ebf7fe"><circle cx="9" cy="28" r="4"/><circle cx="56" cy="35" r="3"/><circle cx="35" cy="55" r="3"/><circle cx="32" cy="8" r="2"/><circle cx="14" cy="49" r="2"/></g></svg>