<?xml version="1.0" encoding="iso-8859-1"?><svg viewBox="0 0 513.64 513.64" xmlns="http://www.w3.org/2000/svg" xmlns:xlink="http://www.w3.org/1999/xlink"><style>:root>svg{display:none}:root>svg:target{display:block}</style><svg viewBox="0 0 443.52 443.52" id="back" xmlns="http://www.w3.org/2000/svg"><path d="M143.492 221.863L336.226 29.129c6.663-6.664 6.663-17.468 0-24.132-6.665-6.662-17.468-6.662-24.132 0l-204.8 204.8c-6.662 6.664-6.662 17.468 0 24.132l204.8 204.8c6.78 6.548 17.584 6.36 24.132-.42 6.387-6.614 6.387-17.099 0-23.712L143.492 221.863z"/></svg><svg viewBox="0 0 497 497" id="clock" xmlns="http://www.w3.org/2000/svg"><circle cx="248.5" cy="248.5" fill="#a381e6" r="248.5"/><circle cx="248.5" cy="248.5" fill="#b0d0ff" r="203.5"/><path d="M248.5 75v347c95.821 0 173.5-77.679 173.5-173.5S344.321 75 248.5 75z" fill="#e3f5ff"/><path d="M392 248.5C392 152.679 327.753 75 248.5 75 152.679 75 75 152.679 75 248.5S152.679 422 248.5 422c79.253 0 143.5-77.679 143.5-173.5z" fill="#fff"/><path d="M248.5 105c-8.284 0-15 6.716-15 15v126.734h30V120c0-8.284-6.716-15-15-15z" fill="#68799e"/><path d="M347 233.5h-30v30h30c8.28 0 15-6.72 15-15s-6.72-15-15-15z" fill="#506480"/><path d="M332 248.5c0-8.284-6.716-15-15-15h-66.734v30H317c8.284 0 15-6.716 15-15z" fill="#68799e"/><path d="M147.078 357.422a7.474 7.474 0 01-5.303-2.197 7.5 7.5 0 010-10.606l101.422-101.422a7.501 7.501 0 0110.607 0 7.5 7.5 0 010 10.606L152.381 355.226a7.477 7.477 0 01-5.303 2.196z" fill="#506480"/><circle cx="248.5" cy="248.5" fill="#b0d0ff" r="22.5"/></svg><svg viewBox="0 0 329.269 329" id="close" xmlns="http://www.w3.org/2000/svg"><path d="M194.8 164.77L323.013 36.555c8.343-8.34 8.343-21.825 0-30.164-8.34-8.34-21.825-8.34-30.164 0L164.633 134.605 36.422 6.391c-8.344-8.34-21.824-8.34-30.164 0-8.344 8.34-8.344 21.824 0 30.164l128.21 128.215L6.259 292.984c-8.344 8.34-8.344 21.825 0 30.164a21.266 21.266 0 0015.082 6.25c5.46 0 10.922-2.09 15.082-6.25l128.21-128.214 128.216 128.214a21.273 21.273 0 0015.082 6.25c5.46 0 10.922-2.09 15.082-6.25 8.343-8.34 8.343-21.824 0-30.164zm0 0"/></svg><svg viewBox="0 0 512 512" id="gloves" xmlns="http://www.w3.org/2000/svg"><path d="M512 439.23H322.369v27.162c0 5.69 4.612 10.302 10.302 10.302h169.027c5.69 0 10.302-4.612 10.302-10.302z" fill="#ecf4ff"/><path d="M512 120.647V439.23H322.364l.01-94.653c0-2.73-1.092-5.357-3.018-7.283l-55.99-55.99A25.047 25.047 0 01256 263.533c0-6.439 2.452-12.877 7.366-17.781 9.818-9.818 25.734-9.818 35.551 0l23.457 23.447V98.127c0-6.717 2.72-12.785 7.119-17.183 4.399-4.399 10.467-7.119 17.183-7.119 2.679 0 5.254.453 7.644 1.298 8.993 3.152 15.453 11.723 15.453 21.799V59.011c0-6.542 2.658-12.465 6.943-16.761 4.296-4.286 10.22-6.943 16.761-6.943 2.905 0 5.687.525 8.252 1.483 9.024 3.348 15.453 12.043 15.453 22.221v26.074c0-6.542 2.658-12.465 6.943-16.761a23.645 23.645 0 0116.761-6.943c2.905 0 5.687.525 8.252 1.483 9.024 3.348 15.453 12.043 15.453 22.221v35.562a23.631 23.631 0 016.943-16.761 23.603 23.603 0 0116.761-6.943c13.094 0 23.705 10.61 23.705 23.704z" fill="#c8ea73"/><path d="M488.296 96.94c-3.715 0-7.224.868-10.352 2.394 7.885 3.85 13.317 11.945 13.317 21.31V439.23H512V120.644c0-13.091-10.613-23.704-23.704-23.704z" fill="#aad880"/><path d="M491.261 476.693h10.437c5.69 0 10.302-4.612 10.302-10.302V439.23h-20.739z" fill="#ddeafb"/><g><path d="M0 439.23h189.631v27.162c0 5.69-4.612 10.302-10.302 10.302H10.302C4.612 476.693 0 472.081 0 466.391z" fill="#ecf4ff"/><path d="M142.222 59.015v37.911c0-12.76 10.344-23.104 23.104-23.104 13.423 0 24.304 10.881 24.304 24.304v171.073l23.451-23.451c9.818-9.818 25.737-9.818 35.556 0 9.818 9.818 9.818 25.737 0 35.555l-55.989 55.989a10.301 10.301 0 00-3.017 7.285l.001 94.652H0V120.643c0-13.09 10.613-23.703 23.704-23.703 13.091 0 23.704 10.613 23.704 23.704V85.089c0-13.091 10.613-23.704 23.704-23.704 13.091 0 23.704 10.613 23.704 23.704V59.015c0-13.091 10.613-23.704 23.704-23.704 13.09 0 23.702 10.612 23.702 23.704z" fill="#c8ea73"/><path d="M169.225 98.126v160.667c0 5.747 4.659 10.406 10.407 10.406h9.998V98.749c0-12.025-8.498-22.636-20.361-24.6-5.06-.838-9.879-.026-14.012 1.978 8.253 3.885 13.968 12.273 13.968 21.999zM248.636 245.748c-7.568-7.568-18.751-9.277-27.98-5.179a25.034 25.034 0 017.576 5.179c9.818 9.818 9.818 25.737 0 35.555l-52.911 52.911a20.813 20.813 0 00-6.096 14.717l.001 90.298h20.404l-.001-94.652c0-2.732 1.085-5.353 3.017-7.285l55.989-55.989c9.82-9.818 9.82-25.736.001-35.555z" fill="#aad880"/><path d="M189.631 439.23h-20.404l-.001 37.463h10.103c5.69 0 10.302-4.612 10.302-10.302z" fill="#ddeafb"/></g><g><path d="M464.591 85.085v94.086c0 4.275-3.461 7.726-7.726 7.726s-7.726-3.451-7.726-7.726V62.864c9.024 3.348 15.452 12.043 15.452 22.221zM417.182 59.011v120.16a7.716 7.716 0 01-7.726 7.726 7.722 7.722 0 01-7.726-7.726V36.79c9.024 3.348 15.452 12.043 15.452 22.221zM369.773 96.922v82.25a7.716 7.716 0 01-7.726 7.726 7.722 7.722 0 01-7.726-7.726V75.123c8.993 3.153 15.452 11.724 15.452 21.799zM47.409 120.647v58.525a7.723 7.723 0 01-7.726 7.726 7.722 7.722 0 01-7.726-7.726V98.416a23.695 23.695 0 018.509 5.47 23.63 23.63 0 016.943 16.761zM94.818 85.085v94.086a7.723 7.723 0 01-7.726 7.726 7.716 7.716 0 01-7.726-7.726V62.864a23.671 23.671 0 018.509 5.46c4.285 4.296 6.943 10.219 6.943 16.761zM142.227 59.011v120.16a7.723 7.723 0 01-7.726 7.726 7.716 7.716 0 01-7.726-7.726V36.79a23.671 23.671 0 018.509 5.46c4.285 4.296 6.943 10.22 6.943 16.761z" fill="#aad880"/></g></svg><svg viewBox="0 0 512 512" id="list" xmlns="http://www.w3.org/2000/svg"><path d="M431.514 0H110.71C96.473 0 84.932 11.541 84.932 25.778v9.568l20.038 212.396-20.038 210.899v27.581c0 14.237 11.541 25.778 25.778 25.778h320.804c14.237 0 25.778-11.541 25.778-25.778V25.778C457.292 11.541 445.751 0 431.514 0zM134.522 424.331c-16.321 0-29.552-13.231-29.552-29.552s13.231-29.552 29.552-29.552 29.552 13.231 29.552 29.552-13.23 29.552-29.552 29.552zm0-94.549c-16.321 0-29.552-13.231-29.552-29.552s13.231-29.552 29.552-29.552 29.552 13.231 29.552 29.552c.001 16.321-13.23 29.552-29.552 29.552zm0-94.55c-16.321 0-29.552-13.231-29.552-29.552s13.231-29.553 29.552-29.553 29.552 13.231 29.552 29.553c.001 16.321-13.23 29.552-29.552 29.552zm0-94.549c-16.321 0-29.552-13.231-29.552-29.552s13.231-29.552 29.552-29.552 29.552 13.231 29.552 29.552c.001 16.321-13.23 29.552-29.552 29.552z" fill="#b3e59f"/><path d="M431.514 0h-9.686v450.758c0 14.237-11.541 25.778-25.778 25.778H84.932v9.686c0 14.237 11.541 25.778 25.778 25.778h320.804c14.237 0 25.778-11.541 25.778-25.778V25.778C457.292 11.541 445.751 0 431.514 0z" fill="#95d6a4"/><path d="M405.89 33.145l-15.866 12.534a4.591 4.591 0 01-5.694 0l-17.561-13.872a4.591 4.591 0 00-5.694 0l-17.558 13.872a4.591 4.591 0 01-5.694 0l-17.558-13.872a4.591 4.591 0 00-5.694 0l-17.557 13.871a4.591 4.591 0 01-5.694 0l-17.556-13.871a4.593 4.593 0 00-5.695 0l-17.553 13.871a4.593 4.593 0 01-5.695 0l-17.553-13.87a4.593 4.593 0 00-5.695 0l-17.55 13.87a4.593 4.593 0 01-5.695 0l-17.555-13.871a4.593 4.593 0 00-5.695 0l-17.554 13.871a4.593 4.593 0 01-5.695 0l-17.554-13.87a4.593 4.593 0 00-5.695 0l-17.553 13.87a4.593 4.593 0 01-5.695 0L89.474 33.146c-1.838-1.453-4.542-.143-4.542 2.2v423.295c0 3.43 1.57 6.672 4.262 8.799l16.139 12.753a4.593 4.593 0 005.695 0l17.553-13.87a4.593 4.593 0 015.695 0l17.554 13.871a4.593 4.593 0 005.695 0l17.554-13.871a4.593 4.593 0 015.695 0l17.555 13.871a4.593 4.593 0 005.695 0l17.55-13.87a4.593 4.593 0 015.695 0l17.553 13.87a4.593 4.593 0 005.695 0l17.553-13.87a4.593 4.593 0 015.695 0l17.556 13.871a4.591 4.591 0 005.694 0l17.557-13.871a4.591 4.591 0 015.694 0l17.558 13.872a4.591 4.591 0 005.694 0l17.558-13.872a4.591 4.591 0 015.694 0l17.561 13.872a4.594 4.594 0 005.694 0l16.145-12.754a11.216 11.216 0 004.263-8.8V35.345c-.002-2.343-2.705-3.652-4.543-2.2zM134.522 419.054c-13.407 0-24.275-10.868-24.275-24.275s10.868-24.275 24.275-24.275 24.275 10.868 24.275 24.275c.001 13.407-10.868 24.275-24.275 24.275zm0-94.549c-13.407 0-24.275-10.868-24.275-24.275s10.868-24.275 24.275-24.275 24.275 10.868 24.275 24.275c.001 13.406-10.868 24.275-24.275 24.275zm0-94.55c-13.407 0-24.275-10.868-24.275-24.275s10.868-24.275 24.275-24.275 24.275 10.868 24.275 24.275c.001 13.407-10.868 24.275-24.275 24.275zm0-94.55c-13.407 0-24.275-10.868-24.275-24.275s10.868-24.275 24.275-24.275 24.275 10.868 24.275 24.275-10.868 24.275-24.275 24.275z" fill="#f4fbff"/><path d="M405.89 33.145l-15.866 12.534a4.591 4.591 0 01-5.694 0l-5.334-4.213v385.739c0 3.431-1.571 6.673-4.263 8.8l-16.145 12.754a4.594 4.594 0 01-5.694 0l-17.561-13.872a4.593 4.593 0 00-5.694 0l-17.558 13.872a4.591 4.591 0 01-5.694 0l-17.558-13.872a4.591 4.591 0 00-5.694 0l-17.557 13.871a4.591 4.591 0 01-5.694 0l-17.556-13.871a4.593 4.593 0 00-5.695 0l-17.553 13.87a4.593 4.593 0 01-5.695 0l-17.553-13.87a4.593 4.593 0 00-5.695 0l-17.55 13.87a4.593 4.593 0 01-5.695 0l-17.555-13.871a4.593 4.593 0 00-5.695 0l-17.554 13.871a4.593 4.593 0 01-5.695 0l-17.553-13.871a4.593 4.593 0 00-5.695 0l-12.214 9.651v14.102c0 3.43 1.57 6.672 4.262 8.799l16.139 12.753a4.593 4.593 0 005.695 0l17.553-13.87a4.593 4.593 0 015.695 0l17.554 13.871a4.593 4.593 0 005.695 0l17.554-13.871a4.593 4.593 0 015.695 0l17.555 13.871a4.593 4.593 0 005.695 0l17.55-13.87a4.593 4.593 0 015.695 0l17.553 13.87a4.593 4.593 0 005.695 0l17.553-13.87a4.593 4.593 0 015.695 0l17.556 13.871a4.591 4.591 0 005.694 0l17.557-13.871a4.591 4.591 0 015.694 0l17.558 13.872a4.591 4.591 0 005.694 0l17.558-13.872a4.591 4.591 0 015.694 0l17.561 13.872a4.594 4.594 0 005.694 0l16.145-12.754a11.216 11.216 0 004.263-8.8V35.345c-.001-2.343-2.704-3.652-4.542-2.2z" fill="#e4f6ff"/><path d="M112.063 126.025H70.174c-8.542 0-15.467-6.925-15.467-15.467s6.925-15.467 15.467-15.467h41.889c8.542 0 15.467 6.925 15.467 15.467s-6.925 15.467-15.467 15.467zM112.063 221.147H70.174c-8.542 0-15.467-6.925-15.467-15.467s6.925-15.467 15.467-15.467h41.889c8.542 0 15.467 6.925 15.467 15.467s-6.925 15.467-15.467 15.467zM112.063 316.268H70.174c-8.542 0-15.467-6.925-15.467-15.467s6.925-15.467 15.467-15.467h41.889c8.542 0 15.467 6.925 15.467 15.467s-6.925 15.467-15.467 15.467zM112.063 411.389H70.174c-8.542 0-15.467-6.925-15.467-15.467s6.925-15.467 15.467-15.467h41.889c8.542 0 15.467 6.925 15.467 15.467s-6.925 15.467-15.467 15.467z" fill="#365e7d"/><g fill="#2b4d66"><path d="M113.621 95.171c.005.169.026.334.026.504 0 8.542-6.925 15.467-15.467 15.467H56.29a15.4 15.4 0 01-1.557-.079c.268 8.306 7.069 14.963 15.441 14.963h41.889c8.542 0 15.467-6.925 15.467-15.467 0-8.016-6.099-14.607-13.909-15.388zM113.621 190.292c.005.169.026.334.026.504 0 8.542-6.925 15.467-15.467 15.467H56.29a15.4 15.4 0 01-1.557-.079c.268 8.306 7.069 14.963 15.441 14.963h41.889c8.542 0 15.467-6.925 15.467-15.467 0-8.016-6.099-14.607-13.909-15.388zM113.621 285.413c.005.169.026.334.026.504 0 8.542-6.925 15.467-15.467 15.467H56.29a15.4 15.4 0 01-1.557-.079c.268 8.306 7.069 14.963 15.441 14.963h41.889c8.542 0 15.467-6.925 15.467-15.467 0-8.016-6.099-14.607-13.909-15.388zM113.621 380.534c.005.169.026.334.026.504 0 8.542-6.925 15.467-15.467 15.467H56.29a15.4 15.4 0 01-1.557-.079c.268 8.306 7.069 14.963 15.441 14.963h41.889c8.542 0 15.467-6.925 15.467-15.467 0-8.016-6.099-14.607-13.909-15.388z"/></g><path d="M361.326 260.887H254.9a7.733 7.733 0 110-15.466h106.426a7.733 7.733 0 110 15.466zM361.326 397.256H254.9a7.733 7.733 0 110-15.466h106.426a7.733 7.733 0 110 15.466z" fill="#d3effb"/><g fill="#80b4fb"><path d="M211.335 168.991h-.044c-5.384.03-11.164.051-15.572.055v-58.948a7.733 7.733 0 10-15.466 0v66.625a7.734 7.734 0 006.431 7.623c.55.095 17.111.153 24.694.111a7.734 7.734 0 00-.043-15.466zM242.771 102.366a7.733 7.733 0 00-7.733 7.733v66.681a7.733 7.733 0 1015.466 0v-66.681a7.733 7.733 0 00-7.733-7.733zM306.404 137.881c-8.291-3.059-16.003-6.392-18.262-7.382-2.121-1.65-2.053-3.979-1.914-4.944.186-1.291 1.115-4.445 5.726-5.833 9.72-2.931 18.668 4.162 18.906 4.353a7.732 7.732 0 0010.859-.974 7.733 7.733 0 00-.944-10.896c-.619-.52-15.374-12.686-33.282-7.293-8.979 2.706-15.33 9.773-16.574 18.445-1.166 8.123 2.354 15.937 9.187 20.392.341.223.7.418 1.072.584.385.171 9.55 4.251 19.873 8.059 3.066 1.131 10.092 4.345 9.127 9.748-.709 3.97-5.481 8.078-12.24 8.078-6.795 0-13.34-2.745-17.507-7.344a7.734 7.734 0 00-11.461 10.385c7.05 7.78 17.879 12.425 28.968 12.425 13.761 0 25.312-8.758 27.466-20.826 1.617-9.058-2.526-20.901-19-26.977zM379.739 103.536h-36.826a7.733 7.733 0 100 15.466h10.605v58.948a7.733 7.733 0 1015.466 0v-58.948h10.754c4.271 0 7.733-3.462 7.733-7.733s-3.461-7.733-7.732-7.733z"/></g><path d="M387.472 111.269a7.733 7.733 0 00-7.733-7.733h-.743v15.467h.743a7.734 7.734 0 007.733-7.734z" fill="#61a2f9"/><path d="M202.069 273.495a7.713 7.713 0 01-5.469-2.265l-12.608-12.608a7.734 7.734 0 0110.937-10.937l7.139 7.14 19.505-19.506a7.734 7.734 0 0110.937 10.937l-24.973 24.973a7.704 7.704 0 01-5.468 2.266z" fill="#95d6a4"/><path d="M361.326 328.95H254.9a7.733 7.733 0 110-15.466h106.426a7.733 7.733 0 110 15.466z" fill="#d3effb"/><path d="M202.069 341.558a7.713 7.713 0 01-5.469-2.265l-12.608-12.608a7.734 7.734 0 0110.937-10.937l7.139 7.14 19.505-19.506a7.734 7.734 0 0110.937 10.937l-24.973 24.973a7.704 7.704 0 01-5.468 2.266z" fill="#95d6a4"/><g><path d="M202.069 409.622a7.713 7.713 0 01-5.469-2.265l-12.608-12.608a7.734 7.734 0 0110.937-10.937l7.139 7.14 19.505-19.505a7.734 7.734 0 0110.937 10.937l-24.973 24.973a7.711 7.711 0 01-5.468 2.265z" fill="#95d6a4"/></g></svg><svg viewBox="0 0 513.64 513.64" id="phone" xmlns="http://www.w3.org/2000/svg"><path d="M499.66 376.96l-71.68-71.68c-25.6-25.6-69.12-15.359-79.36 17.92-7.68 23.041-33.28 35.841-56.32 30.72-51.2-12.8-120.32-79.36-133.12-133.12-7.68-23.041 7.68-48.641 30.72-56.32 33.28-10.24 43.52-53.76 17.92-79.36l-71.68-71.68c-20.48-17.92-51.2-17.92-69.12 0L18.38 62.08c-48.64 51.2 5.12 186.88 125.44 307.2s256 176.641 307.2 125.44l48.64-48.64c17.921-20.48 17.921-51.2 0-69.12z"/></svg><svg viewBox="0 0 24 24" id="plant" xmlns="http://www.w3.org/2000/svg"><path d="M16.588 5H14.75a.75.75 0 01-.75-.75v-.838A3.416 3.416 0 0117.412 0h1.838a.75.75 0 01.75.75v.838A3.416 3.416 0 0116.588 5z" fill="#8bc34a"/><path d="M19.25 0h-1.838A3.416 3.416 0 0014 3.412v.838c0 .168.055.322.148.447C15.47 2.832 17.994.862 19.864.319A.75.75 0 0019.25 0z" fill="#79aa40"/><path d="M14.75 12.25a.75.75 0 01-.75-.75v-7a.75.75 0 011.5 0v7a.75.75 0 01-.75.75z" fill="#388e3c"/><path d="M14.75 9H14v2.5c0 .414.336.75.75.75zm0-5.25a.752.752 0 00-.668.408c.251.231.476.492.668.775z" fill="#317c34"/><path d="M24 19c0 .44-1.55 1.46-3.55 2.47C17.92 22.75 14.68 24 13 24c-.25 0-.55-.02-.88-.07h-.01c-2.31-.3-6.16-1.56-8.15-2.46l2.01-7.08c.04-.149.061-.29.07-.43 1.13.09 2.08.25 2.91.49.96.26 1.78.609 2.57 1.05 1.51.23 4.48.5 4.48 2.25 0 .72-.44 1.25-2 1.25s-4.25-.5-4.25-.5S12 20.03 14 20.03c1.87 0 5.47-2.2 7.57-2.49.15-.03.3-.04.43-.04 1 0 2 .5 2 1.5z" fill="#ffcc80"/><path d="M3.5 22H.75a.75.75 0 01-.75-.75v-8.5A.75.75 0 01.75 12c3.505 0 5.138 1.217 5.205 1.268a.751.751 0 01.269.793l-2 7.385A.75.75 0 013.5 22z" fill="#607d8b"/><path d="M22 17.5c-.13 0-.28.01-.43.04-2.1.29-5.7 2.49-7.57 2.49-2 0-4.25-1.53-4.25-1.53l-4.539-.698-.987 3.644a.742.742 0 01-.045.122c2.043.891 5.703 2.073 7.93 2.362h.01c.331.05.631.07.881.07 1.68 0 4.92-1.25 7.45-2.53 2-1.01 3.55-2.03 3.55-2.47 0-1-1-1.5-2-1.5z" fill="#deb26f"/><path d="M0 17v4.25c0 .414.336.75.75.75H3.5a.75.75 0 00.725-.555l.987-3.644z" fill="#546d79"/><path d="M14.75 9h-1.867A4.388 4.388 0 018.5 4.617V3.75A.75.75 0 019.25 3h1.867A4.388 4.388 0 0115.5 7.383v.867a.75.75 0 01-.75.75z" fill="#8bc34a"/><path d="M8.632 3.325a.748.748 0 00-.132.425v.867A4.388 4.388 0 0012.883 9h1.867a.746.746 0 00.489-.181c-1.2-2.165-4.048-4.558-6.607-5.494z" fill="#79aa40"/></svg><svg viewBox="0 0 512 512" id="time" xmlns="http://www.w3.org/2000/svg"><circle cx="239.985" cy="283.571" fill="#dd636e" r="228.428"/><path d="M254.65 511.54c-4.848.297-9.742.46-14.664.46-126.166 0-228.43-102.279-228.43-228.429S113.82 55.142 239.986 55.142c4.923 0 9.816.163 14.664.46-119.286 7.62-213.676 106.771-213.676 227.969s94.39 220.348 213.676 227.969z" fill="#cb5769"/><circle cx="239.985" cy="283.571" fill="#d3effb" r="174.586"/><path d="M270.49 455.627a174.263 174.263 0 01-29.758 2.535c-96.422 0-174.591-78.17-174.591-174.591S144.31 108.98 240.732 108.98c10.142 0 20.091.86 29.758 2.535-82.232 14.116-144.818 85.776-144.818 172.056s62.586 157.94 144.818 172.056z" fill="#9dc6fb"/><path d="M239.985 305.812h-81.112c-12.283 0-22.241-9.958-22.241-22.241s9.958-22.241 22.241-22.241h81.112c12.283 0 22.241 9.958 22.241 22.241s-9.958 22.241-22.241 22.241z" fill="#365e7d"/><path d="M239.985 305.812c-12.283 0-22.241-9.958-22.241-22.241v-56.79c0-12.283 9.958-22.241 22.241-22.241s22.241 9.958 22.241 22.241v56.79c0 12.283-9.958 22.241-22.241 22.241z" fill="#2b4d66"/><g fill="#365e7d"><path d="M239.985 158.264a7.75 7.75 0 01-7.751-7.751v-34.977c0-4.281 3.47-7.751 7.751-7.751s7.751 3.47 7.751 7.751v34.977a7.751 7.751 0 01-7.751 7.751zM239.985 459.356a7.75 7.75 0 01-7.751-7.751v-34.977c0-4.281 3.47-7.751 7.751-7.751s7.751 3.47 7.751 7.751v34.977a7.751 7.751 0 01-7.751 7.751zM408.02 291.322h-34.977c-4.281 0-7.751-3.47-7.751-7.751s3.47-7.751 7.751-7.751h34.977a7.75 7.75 0 110 15.502zM106.928 291.322H71.95c-4.281 0-7.751-3.47-7.751-7.751s3.47-7.751 7.751-7.751h34.977c4.281 0 7.751 3.47 7.751 7.751s-3.47 7.751-7.75 7.751zM367.635 217.628a7.75 7.75 0 01-3.883-14.465l17.88-10.323a7.75 7.75 0 0110.588 2.837 7.75 7.75 0 01-2.837 10.588l-17.88 10.323a7.71 7.71 0 01-3.868 1.04zM94.469 375.341a7.75 7.75 0 01-3.883-14.465l17.88-10.323a7.75 7.75 0 117.751 13.425l-17.88 10.323a7.71 7.71 0 01-3.868 1.04z"/><g><path d="M313.673 163.68a7.75 7.75 0 01-6.705-11.628l10.323-17.88a7.75 7.75 0 0110.588-2.837 7.75 7.75 0 012.837 10.588l-10.323 17.88a7.75 7.75 0 01-6.72 3.877zM155.961 436.846a7.75 7.75 0 01-6.705-11.628l10.323-17.88a7.75 7.75 0 0110.588-2.837 7.75 7.75 0 012.837 10.588l-10.323 17.88a7.751 7.751 0 01-6.72 3.877z"/></g><g><path d="M166.297 163.68a7.748 7.748 0 01-6.72-3.877l-10.323-17.88a7.75 7.75 0 012.837-10.588 7.75 7.75 0 0110.588 2.837l10.323 17.88a7.75 7.75 0 01-6.705 11.628zM324.009 436.846a7.748 7.748 0 01-6.72-3.877l-10.323-17.88a7.75 7.75 0 1113.425-7.751l10.323 17.88a7.75 7.75 0 01-6.705 11.628z"/></g><g><path d="M112.335 217.628a7.71 7.71 0 01-3.868-1.04l-17.88-10.323a7.75 7.75 0 01-2.837-10.588 7.75 7.75 0 0110.588-2.837l17.88 10.323a7.75 7.75 0 01-3.883 14.465zM385.5 375.341a7.71 7.71 0 01-3.868-1.04l-17.88-10.323a7.75 7.75 0 01-2.837-10.588 7.75 7.75 0 0110.588-2.837l17.88 10.323a7.75 7.75 0 01-3.883 14.465z"/></g></g><path d="M239.985 468.492c-101.965 0-184.92-82.955-184.92-184.921S138.019 98.65 239.985 98.65s184.921 82.955 184.921 184.921-82.956 184.921-184.921 184.921zm0-349.172c-90.568 0-164.251 73.683-164.251 164.251s73.683 164.251 164.251 164.251 164.251-73.683 164.251-164.251S330.553 119.32 239.985 119.32z" fill="#cb5769"/><g><path d="M387.913 59.714c-16.463 0-29.857-13.394-29.857-29.857C358.057 13.394 371.45 0 387.913 0s29.857 13.394 29.857 29.857-13.394 29.857-29.857 29.857zm0-44.439c-8.04 0-14.582 6.542-14.582 14.582 0 8.041 6.542 14.582 14.582 14.582s14.582-6.542 14.582-14.582c0-8.041-6.542-14.582-14.582-14.582z" fill="#ffd064"/><circle cx="333.577" cy="230.608" fill="#e7a561" r="28.973"/><path d="M343.358 257.88a28.826 28.826 0 01-9.781 1.701c-16.002 0-28.973-12.971-28.973-28.973s12.971-28.973 28.973-28.973c3.428 0 6.723.599 9.781 1.701-11.191 4-19.192 14.698-19.192 27.272s8.001 23.271 19.192 27.272z" fill="#e29375"/><path d="M387.913 230.608c39.587 0 68.408-3.708 88.948-8.323 29.04-6.525 32.115-46.746 4.446-57.713-.25-.099-.499-.197-.746-.292-10.093-3.908-17.093-13.232-17.756-24.035-.762-12.423-2.219-22.99-3.949-31.812-6.332-32.288-32.63-57.052-65.295-61-3.55-.429-5.649-.447-5.649-.447s-2.099.018-5.649.447c-32.665 3.948-58.962 28.713-65.295 61-1.73 8.822-3.188 19.389-3.949 31.812-.662 10.803-7.663 20.126-17.755 24.035-.247.096-.496.193-.746.292-27.669 10.967-24.594 51.188 4.446 57.713 20.542 4.615 49.363 8.323 88.949 8.323z" fill="#f6e266"/><path d="M387.911 46.979s-.925.018-2.485.476c-14.407 4.159-26.012 30.242-28.805 64.246-.758 9.296-1.401 20.425-1.736 33.511-.291 11.376-3.384 21.192-7.834 25.316-.106.097-.22.203-.326.308-11.129 10.521-10.979 46.666-1.163 58.174-18.892-1.507-34.242-3.956-46.596-6.732-29.034-6.521-32.118-46.746-4.441-57.707.247-.106.493-.203.74-.291 10.098-3.912 17.095-13.235 17.755-24.038.767-12.424 2.221-22.99 3.948-31.81 6.336-32.295 32.63-57.055 65.294-61.003 3.552-.432 5.649-.45 5.649-.45z" fill="#ffd064"/></g></svg><svg viewBox="0 0 512 512" id="umbrella" xmlns="http://www.w3.org/2000/svg"><path d="M256 0h-15v45h30V0z" fill="#2d5177"/><path d="M256 0h15v45h-15z" fill="#32405d"/><path d="M301 437v30c0 8.276-6.724 15-15 15s-15-6.724-15-15V255h-30v212c0 13.248 5.861 25.052 15 33.296 7.98 7.196 18.433 11.704 30 11.704 24.814 0 45-20.186 45-45v-30z" fill="#2d5177"/><path d="M331 467v-30h-30v30c0 8.276-6.724 15-15 15s-15-6.724-15-15V255h-15v245.296c7.98 7.196 18.433 11.704 30 11.704 24.814 0 45-20.186 45-45z" fill="#32405d"/><path d="M0 270l.015 24.17 21.68-10.737C21.958 283.286 50.043 270 76 270c19.351 0 42.231 18.501 49.409 25.62l10.783 10.298L256 30C110.629 30 0 133.184 0 270z" fill="#f03800"/><path d="M256 30l119.808 275.918 10.783-10.298C393.769 288.501 416.649 270 436 270c25.957 0 54.042 13.286 54.306 13.433L512 294.185V270c0-136.816-110.629-240-256-240z" fill="#cd0000"/><path d="M256 30c-64.984 0-117.77 122.758-119.808 275.918l10.399-10.298C153.769 288.501 176.649 270 196 270s42.231 18.501 49.409 25.62L256 306.094l.015.015 10.576-10.488C273.769 288.501 296.649 270 316 270s42.231 18.501 49.409 25.62l10.399 10.298C373.77 152.758 320.984 30 256 30z" fill="#ff641a"/><path d="M266.591 295.62C273.769 288.501 296.649 270 316 270s42.231 18.501 49.409 25.62l10.399 10.298C373.77 152.758 320.984 30 256 30v276.094l.015.015z" fill="#f03800"/></svg><svg viewBox="0 0 512 512" id="warranty" xmlns="http://www.w3.org/2000/svg"><path d="M24 88h464v336H24z" fill="#548aff"/><path d="M72 136h368v240H72z" fill="#4976f2"/><path d="M312 224h48v16h-48zM216 224h80v16h-80zM152 224h48v16h-48z" fill="#639aff"/><path d="M260 378l-52 78-8-40-40 8 48-72z" fill="#e35430"/><path d="M252 378l52 78 8-40 40 8-48-72z" fill="#ef5e3b"/><g fill="#639aff"><path d="M302.06 169.454L336 184v-40l-19.378-9.69A135.554 135.554 0 00256 120a135.554 135.554 0 00-60.622 14.31L176 144v40l33.94-14.546A116.926 116.926 0 01256 160a116.926 116.926 0 0146.06 9.454zM232 192h48v16h-48zM136 328h72v16h-72zM304 328h72v16h-72zM392 328h16v16h-16zM104 328h16v16h-16z"/></g><circle cx="256" cy="328" fill="#ffc431" r="56"/><path d="M260 336h-8a8 8 0 010-16h8a8 8 0 010 16z" fill="#ffa100"/></svg></svg>