<svg version="1.0" xmlns="http://www.w3.org/2000/svg" width="933.333" height="933.333" viewBox="0 0 700 700"><path d="M140 22.6c-29.7 5.8-52.4 22.5-65.3 47.9-7.3 14.5-10.6 34.6-8.3 50.9 4 28.2 22.5 53.7 47.9 66.1 14.3 6.9 22.6 8.8 39.2 8.8 12.3 0 15.1-.4 23-2.7 26-7.8 45.4-24.5 56.4-48.6 5.3-11.7 7.2-20.5 7.5-34.9.3-10-1-17.8-4.5-28.4-9.8-29.7-34.3-51.4-65.8-58.3-3.5-.8-27-1.4-30.1-.8zm206.7 43.5c-6.2 1-11.9 4.8-15.4 10.2-2.2 3.4-2.7 5.4-2.7 10.7 0 13 8.7 22 21.4 22 12.5 0 21.4-8.9 21.4-21.5.1-13.6-11.3-23.5-24.7-21.4zm168.3.1c-21.6 2.2-41.8 10.1-57 22.3-5.6 4.5-18 17.4-21.9 22.8-11.6 15.9-19.9 39.9-20.4 59.1-.1 3.1-.3 5.6-.5 5.6-.1 0-1.9-.7-3.9-1.5-18.5-7.8-56.2-12.1-81.3-9.3-33.2 3.6-63 15.3-91 35.7-4.1 3-9.7 7.6-12.5 10.2-2.7 2.6-6.4 6-8 7.5-5.8 5.4-17.1 19.2-22.7 27.6-12.9 19.3-23.8 44.8-27.3 63.3-.3 1.6-1.2 6.8-2.1 11.5-2.6 14.1-2.6 43.1.1 59.5 3.1 18.9 11 41.6 20.1 58 6.8 12.2 8.2 14.4 13.2 20.9 21.3 28.2 48.2 49.6 77.2 61.5 3 1.2 6.4 2.6 7.5 3.1 3.8 1.7 22 6.9 29.8 8.5 21.8 4.3 51.5 4.1 74.2-.6 38.5-8 75.1-29.5 101.1-59.4 21-24.1 34.5-50.4 41.8-81.5 4.4-18.3 5.4-53.4 2.2-70.5-1-5-2-10.3-2.2-11.8-.6-3.2-4.7-16.8-6.3-21-.6-1.5-.9-2.7-.8-2.8.1-.1 1.6-.2 3.3-.4 14-1.2 19-2 27.9-4.6 8.3-2.4 8.9-2.6 18.5-7.4 14.5-7.3 28.8-18.9 36.8-29.9 2-2.8 3.9-5.3 4.2-5.6 1.3-1 8.2-13.5 10.4-18.9 3.2-7.5 6.3-17.9 7.1-23.3.3-2.3.8-5.6 1.2-7.3 2-10.1-.4-33-4.8-46.6-8.6-26.1-28.3-49.5-53-62.6-18.2-9.7-40.7-14.2-60.9-12.1zM89.2 263.6c-11.1 2.5-21.8 10-27.6 19.3-4.6 7.3-6.4 13.9-6.4 23.7 0 7.8.4 9.9 3.1 16.4 7.1 17.2 25.7 28.6 43.7 26.6 8-.8 9.2-1.2 15.3-4.1 23.7-11.1 32-41.7 17.3-63.5-10-14.9-28.3-22.3-45.4-18.4zM604.7 351c-16.6 4.1-27.1 20.2-24.3 37 4.7 27.8 39.5 37.1 57.5 15.3 7.4-9 9.2-24.1 4.2-34.5-6.6-13.5-23-21.3-37.4-17.8zM54 395.4c-10.8 3.1-21.4 11.3-26.3 20.4-13.9 25.6-.6 56.6 27.5 64.2 10.6 2.8 27-.3 35.4-6.7 5.3-4.1 6.1-4.8 9.6-9.3 12.8-16.5 11.9-39.9-2.2-55.6-8.4-9.3-17.5-13.5-30.5-14-5.5-.2-10.8.2-13.5 1zM578 504c-9.2 1.6-10.6 2-17.4 4.5-24.7 9-44.4 29.3-52.9 54.5-3.1 9.3-3.7 13-4.2 25-1 23.9 7.9 46.6 24.9 63.6 12.2 12.2 22.1 18.1 38.3 23 7.7 2.4 10.6 2.7 23.3 2.8 12.2.1 15.8-.3 23-2.2 30.2-8.2 54.1-32.2 62.1-62.2 1.8-6.7 2.3-11.3 2.3-21.5.1-7.2-.2-14.4-.5-16-1.5-6.8-2.2-9.2-4-14.3-7.5-20.7-23.1-38.7-42.1-48.3-6.2-3.1-18.2-7.4-23.8-8.4-5.7-1-24.2-1.3-29-.5zm-430.5 10.7c-3.7.9-10.1 5.5-12.1 8.7-9.4 14.3-.8 32.9 15.6 34.1 12.5.8 22.2-7.2 23.7-19.5 1-8.6-3.9-17.5-12-21.6-3.2-1.7-11.8-2.6-15.2-1.7zM374 569.9c-9.1 2.8-16.8 9.4-20.9 18.1-3.7 7.8-3.7 19.1 0 27.1 4.7 10 14.1 17.1 24.9 18.8 4.8.8 5.7.7 11.9-.4 11.2-2.1 22.2-13 24.8-24.5.4-1.4.6-5.3.6-8.6-.1-12.6-8.8-24.8-20.9-29.3-5.6-2.1-15.4-2.7-20.4-1.2zm-218.7 21.8c-29.3 5.9-43.9 39.1-28.6 65.2 12 20.7 40.3 27.3 60.8 14.2 12-7.7 19.1-19.9 19.9-34.1 1.7-28.8-23.9-51.1-52.1-45.3z"/></svg>